<?xml version="1.0" encoding="UTF-8" standalone="no"?>
<!-- Created with Inkscape (http://www.inkscape.org/) -->

<svg
   xmlns:dc="http://purl.org/dc/elements/1.1/"
   xmlns:cc="http://creativecommons.org/ns#"
   xmlns:rdf="http://www.w3.org/1999/02/22-rdf-syntax-ns#"
   xmlns:svg="http://www.w3.org/2000/svg"
   xmlns="http://www.w3.org/2000/svg"
   xmlns:sodipodi="http://sodipodi.sourceforge.net/DTD/sodipodi-0.dtd"
   xmlns:inkscape="http://www.inkscape.org/namespaces/inkscape"
   version="1.1"
   id="svg88829"
   xml:space="preserve"
   width="1066.6667"
   height="1066.6667"
   viewBox="0 0 1066.6667 1066.6667"
   sodipodi:docname="snowflake-clip-art-publicdomainvectors.org.svg"
   inkscape:version="0.92.4 (5da689c313, 2019-01-14)"><metadata
     id="metadata88835"><rdf:RDF><cc:Work
         rdf:about=""><dc:format>image/svg+xml</dc:format><dc:type
           rdf:resource="http://purl.org/dc/dcmitype/StillImage" /><dc:title></dc:title></cc:Work></rdf:RDF></metadata><defs
     id="defs88833"><clipPath
       clipPathUnits="userSpaceOnUse"
       id="clipPath88845"><path
         d="M 0,800 H 800 V 0 H 0 Z"
         id="path88843"
         inkscape:connector-curvature="0" /></clipPath></defs><sodipodi:namedview
     pagecolor="#ffffff"
     bordercolor="#666666"
     borderopacity="1"
     objecttolerance="10"
     gridtolerance="10"
     guidetolerance="10"
     inkscape:pageopacity="0"
     inkscape:pageshadow="2"
     inkscape:window-width="797"
     inkscape:window-height="480"
     id="namedview88831"
     showgrid="false"
     inkscape:zoom="0.22124998"
     inkscape:cx="533.33337"
     inkscape:cy="533.33337"
     inkscape:window-x="0"
     inkscape:window-y="0"
     inkscape:window-maximized="0"
     inkscape:current-layer="g88837" /><g
     id="g88837"
     inkscape:groupmode="layer"
     inkscape:label="snowflake-clip-art-publicdomainvectors.org"
     transform="matrix(1.3333333,0,0,-1.3333333,0,1066.6667)"><g
       id="g88839"><g
         id="g88841"
         clip-path="url(#clipPath88845)"><path
           d="m 361.182,747.299 v -1.576 l 13.572,0.922 z"
           style="fill:#0054bd;fill-opacity:1;fill-rule:nonzero;stroke:none"
           id="path88847"
           inkscape:connector-curvature="0" /><path
           d="m 412.699,754.374 -21.522,13.981 -29.995,-19.672 v -1.384 l 13.572,-0.654 z"
           style="fill:#0051c6;fill-opacity:1;fill-rule:nonzero;stroke:none"
           id="path88849"
           inkscape:connector-curvature="0" /><path
           d="m 78.207,231.313 31.45,-13.23 -31.45,44.861 z"
           style="fill:#af001f;fill-opacity:1;fill-rule:nonzero;stroke:none"
           id="path88851"
           inkscape:connector-curvature="0" /><path
           d="M 120.272,291.759 78.207,268.768 v -5.824 l 31.45,-44.861 3.519,-1.48 77.554,43.753 7.471,15.359 z"
           style="fill:#b40e00;fill-opacity:1;fill-rule:nonzero;stroke:none"
           id="path88853"
           inkscape:connector-curvature="0" /><path
           d="m 168.889,377.214 -37.585,11.244 -20.914,-11.451 v -34.268 l 0.964,-0.485 60.117,33.439 z"
           style="fill:#ab7ba5;fill-opacity:1;fill-rule:nonzero;stroke:none"
           id="path88855"
           inkscape:connector-curvature="0" /><path
           d="m 153.625,512.277 7.825,-4.248 -52.154,-29.302 v -17.908 l 79.302,54.609 z"
           style="fill:#003bcc;fill-opacity:1;fill-rule:nonzero;stroke:none"
           id="path88857"
           inkscape:connector-curvature="0" /><path
           d="m 110.187,607.154 -31.98,-16.481 v -37.448 l 19.429,-10.549 60.716,36.669 z"
           style="fill:#0056c8;fill-opacity:1;fill-rule:nonzero;stroke:none"
           id="path88859"
           inkscape:connector-curvature="0" /><path
           d="m 192.234,604.978 v -5.171 l 5.228,3.158 z"
           style="fill:#0056c8;fill-opacity:1;fill-rule:nonzero;stroke:none"
           id="path88861"
           inkscape:connector-curvature="0" /><path
           d="m 197.462,602.965 -5.228,-3.158 v -40.025 l -33.882,19.563 -60.716,-36.669 55.989,-30.399 34.973,3.151 z"
           style="fill:#006ad4;fill-opacity:1;fill-rule:nonzero;stroke:none"
           id="path88863"
           inkscape:connector-curvature="0" /><path
           d="m 109.296,460.819 v -16.258 l 28.913,-14.401 43.415,25.512 6.974,59.756 z"
           style="fill:#0e7ac4;fill-opacity:1;fill-rule:nonzero;stroke:none"
           id="path88865"
           inkscape:connector-curvature="0" /><path
           d="m 140.887,393.703 -9.583,-5.245 37.585,-11.244 z"
           style="fill:#0e7ac4;fill-opacity:1;fill-rule:nonzero;stroke:none"
           id="path88867"
           inkscape:connector-curvature="0" /><path
           d="m 197.994,624.043 -5.76,-3.889 v -15.176 l 5.228,-2.013 z"
           style="fill:#0063c3;fill-opacity:1;fill-rule:nonzero;stroke:none"
           id="path88869"
           inkscape:connector-curvature="0" /><path
           d="m 172.65,375 -1.179,0.693 -60.117,-33.439 52.774,-26.527 -43.856,-23.968 77.929,-16.044 z"
           style="fill:#b2764c;fill-opacity:1;fill-rule:nonzero;stroke:none"
           id="path88871"
           inkscape:connector-curvature="0" /><path
           d="m 361.182,745.723 v -3.818 l 13.572,4.74 z"
           style="fill:#0066c9;fill-opacity:1;fill-rule:nonzero;stroke:none"
           id="path88873"
           inkscape:connector-curvature="0" /><path
           d="m 245.205,430.038 -29.736,-18.456 13.011,-7.462 25.494,12.689 z"
           style="fill:#2bc7cd;fill-opacity:1;fill-rule:nonzero;stroke:none"
           id="path88875"
           inkscape:connector-curvature="0" /><path
           d="m 181.624,455.672 33.526,19.703 -26.552,40.053 z"
           style="fill:#2bc7cd;fill-opacity:1;fill-rule:nonzero;stroke:none"
           id="path88877"
           inkscape:connector-curvature="0" /><path
           d="m 190.73,260.356 4.296,2.423 v -59.382 l 24.926,-16.49 29.498,18.274 v 25.861 l -51.249,44.673 z"
           style="fill:#c32600;fill-opacity:1;fill-rule:nonzero;stroke:none"
           id="path88879"
           inkscape:connector-curvature="0" /><path
           d="m 282.028,669.026 v -32.78 l 9.749,-5.553 6.901,47.992 z"
           style="fill:#0074ce;fill-opacity:1;fill-rule:nonzero;stroke:none"
           id="path88881"
           inkscape:connector-curvature="0" /><path
           d="m 247.234,606.391 0.029,12.975 -30.3,17.485 -18.969,-12.808 -0.532,-21.078 z"
           style="fill:#007fd1;fill-opacity:1;fill-rule:nonzero;stroke:none"
           id="path88883"
           inkscape:connector-curvature="0" /><path
           d="m 228.48,404.12 16.694,-9.574 8.8,22.263 z"
           style="fill:#9bc365;fill-opacity:1;fill-rule:nonzero;stroke:none"
           id="path88885"
           inkscape:connector-curvature="0" /><path
           d="M 229.547,355.013 217.949,348.323 172.65,375 198.201,275.715 Z"
           style="fill:#9bc365;fill-opacity:1;fill-rule:nonzero;stroke:none"
           id="path88887"
           inkscape:connector-curvature="0" /><path
           d="m 282.04,189.896 v -33.068 l 4.377,-2.509 -3.516,36.065 z"
           style="fill:#c60800;fill-opacity:1;fill-rule:nonzero;stroke:none"
           id="path88889"
           inkscape:connector-curvature="0" /><path
           d="m 245.174,394.546 25.024,-14.352 0.313,-0.24 -16.537,36.855 z"
           style="fill:#c8c22c;fill-opacity:1;fill-rule:nonzero;stroke:none"
           id="path88891"
           inkscape:connector-curvature="0" /><path
           d="m 303.379,306.705 v -33.572 l 15.232,-0.372 z"
           style="fill:#c8c22c;fill-opacity:1;fill-rule:nonzero;stroke:none"
           id="path88893"
           inkscape:connector-curvature="0" /><path
           d="m 229.547,355.013 -31.346,-79.298 51.249,-1.258 v 19.327 l 47.454,27.351 -25.926,57.78 z"
           style="fill:#c8c22c;fill-opacity:1;fill-rule:nonzero;stroke:none"
           id="path88895"
           inkscape:connector-curvature="0" /><path
           d="m 247.12,555.672 0.114,50.719 -49.772,-3.426 z"
           style="fill:#0097de;fill-opacity:1;fill-rule:nonzero;stroke:none"
           id="path88897"
           inkscape:connector-curvature="0" /><path
           d="m 188.598,515.428 73.599,4.906 -15.138,8.646 0.061,26.692 -49.658,47.293 z"
           style="fill:#008dde;fill-opacity:1;fill-rule:nonzero;stroke:none"
           id="path88899"
           inkscape:connector-curvature="0" /><path
           d="m 260.156,439.317 -14.951,-9.279 8.769,-13.229 z"
           style="fill:#0097e2;fill-opacity:1;fill-rule:nonzero;stroke:none"
           id="path88901"
           inkscape:connector-curvature="0" /><path
           d="m 262.197,520.334 -73.599,-4.906 26.552,-40.053 0.121,0.071 47.286,-27.385 17.11,62.296 z"
           style="fill:#0097e2;fill-opacity:1;fill-rule:nonzero;stroke:none"
           id="path88903"
           inkscape:connector-curvature="0" /><path
           d="m 249.45,231.042 v 43.415 l -51.249,1.258 z"
           style="fill:#ce5d00;fill-opacity:1;fill-rule:nonzero;stroke:none"
           id="path88905"
           inkscape:connector-curvature="0" /><path
           d="m 303.379,273.133 v -13.618 l 12.463,8.01 2.769,5.236 z"
           style="fill:#ce5d00;fill-opacity:1;fill-rule:nonzero;stroke:none"
           id="path88907"
           inkscape:connector-curvature="0" /><path
           d="m 409.699,369.482 h -41.967 l -7.182,10.61 -41.939,-107.331 21.353,10.271 19.831,12.748 v -3.208 l 66.3,31.898 z"
           style="fill:#d4e20a;fill-opacity:1;fill-rule:nonzero;stroke:none"
           id="path88909"
           inkscape:connector-curvature="0" /><path
           d="m 359.883,655.746 -51.142,28.775 -10.063,-5.836 -6.901,-47.992 18.613,-10.601 55.868,27.934 z"
           style="fill:#008ad9;fill-opacity:1;fill-rule:nonzero;stroke:none"
           id="path88911"
           inkscape:connector-curvature="0" /><path
           d="m 353.958,434.704 12.025,19.896 -63.835,51.489 0.024,-8.587 -22.505,12.855 -17.11,-62.296 6.045,-3.5 -8.446,-5.244 -6.182,-22.508 z"
           style="fill:#2ae0e0;fill-opacity:1;fill-rule:nonzero;stroke:none"
           id="path88913"
           inkscape:connector-curvature="0" /><path
           d="m 360.55,380.092 -20.923,30.898 14.331,23.714 -99.984,-17.895 16.537,-36.855 0.972,-0.747 -0.505,-0.292 25.926,-57.78 6.475,3.731 v -18.161 l 15.232,-33.944 z"
           style="fill:#8ddf37;fill-opacity:1;fill-rule:nonzero;stroke:none"
           id="path88915"
           inkscape:connector-curvature="0" /><path
           d="M 361.182,124.994 V 77.166 l 29.995,-19.463 30.282,19.457 v 93.858 l 19.785,-11.193 -1.483,49.405 z"
           style="fill:#df2200;fill-opacity:1;fill-rule:nonzero;stroke:none"
           id="path88917"
           inkscape:connector-curvature="0" /><path
           d="m 310.39,620.092 27.179,-15.48 28.689,43.414 z"
           style="fill:#009be2;fill-opacity:1;fill-rule:nonzero;stroke:none"
           id="path88919"
           inkscape:connector-curvature="0" /><path
           d="m 301.993,561.36 0.029,-10.54 5.131,7.764 z"
           style="fill:#009be2;fill-opacity:1;fill-rule:nonzero;stroke:none"
           id="path88921"
           inkscape:connector-curvature="0" /><path
           d="m 423.622,530.854 -0.956,-0.582 v 2.532 l -56.408,115.222 -28.689,-43.414 22.226,-12.659 v -61.681 l -52.642,28.312 -5.131,-7.764 0.093,-33.051 142.077,-28.935 z"
           style="fill:#00afec;fill-opacity:1;fill-rule:nonzero;stroke:none"
           id="path88923"
           inkscape:connector-curvature="0" /><path
           d="m 306.766,203.949 -23.865,-13.565 3.516,-36.065 22.33,-12.787 52.435,29.486 v -46.024 l 78.579,84.236 z"
           style="fill:#dc2b00;fill-opacity:1;fill-rule:nonzero;stroke:none"
           id="path88925"
           inkscape:connector-curvature="0" /><path
           d="m 315.842,267.525 5.728,3.683 -2.959,1.553 z"
           style="fill:#df5e00;fill-opacity:1;fill-rule:nonzero;stroke:none"
           id="path88927"
           inkscape:connector-curvature="0" /><path
           d="m 359.795,251.164 v -17.078 l -53.029,-30.137 132.995,5.281 z"
           style="fill:#df5e00;fill-opacity:1;fill-rule:nonzero;stroke:none"
           id="path88929"
           inkscape:connector-curvature="0" /><path
           d="m 366.346,455.2 h 36.314 l 41.532,33.634 -142.077,28.935 0.033,-11.68 63.835,-51.489 z"
           style="fill:#09c7ef;fill-opacity:1;fill-rule:nonzero;stroke:none"
           id="path88931"
           inkscape:connector-curvature="0" /><path
           d="m 374.754,746.645 -13.572,-4.74 v -86.889 l -1.299,0.73 6.375,-7.72 z"
           style="fill:#0074d4;fill-opacity:1;fill-rule:nonzero;stroke:none"
           id="path88933"
           inkscape:connector-curvature="0" /><path
           d="m 321.57,271.208 18.394,11.824 -21.353,-10.271 z"
           style="fill:#e88100;fill-opacity:1;fill-rule:nonzero;stroke:none"
           id="path88935"
           inkscape:connector-curvature="0" /><path
           d="m 359.795,292.572 v -41.408 l 79.966,-41.934 -1.925,16.231 -15.182,8.625 v 61.694 l 7.377,-4.503 -3.936,33.193 z"
           style="fill:#e88100;fill-opacity:1;fill-rule:nonzero;stroke:none"
           id="path88937"
           inkscape:connector-curvature="0" /><path
           d="m 444.221,410.99 -24.149,-41.508 h -10.373 l 16.396,-45.012 55.772,84.583 -44.681,14.162 z"
           style="fill:#cef02c;fill-opacity:1;fill-rule:nonzero;stroke:none"
           id="path88939"
           inkscape:connector-curvature="0" /><path
           d="m 534.397,620.723 v -7.287 l 4.721,6.52 z"
           style="fill:#00b0ed;fill-opacity:1;fill-rule:nonzero;stroke:none"
           id="path88941"
           inkscape:connector-curvature="0" /><path
           d="m 422.666,532.804 v 59.149 l 64.363,36.461 -120.771,19.612 z"
           style="fill:#00b0ed;fill-opacity:1;fill-rule:nonzero;stroke:none"
           id="path88943"
           inkscape:connector-curvature="0" /><path
           d="m 477.701,535.12 v 28.727 l -54.079,-32.993 20.57,-42.02 z"
           style="fill:#00b0ed;fill-opacity:1;fill-rule:nonzero;stroke:none"
           id="path88945"
           inkscape:connector-curvature="0" /><path
           d="m 366.258,648.026 55.201,46.908 v 53.749 l -8.76,5.691 -37.945,-7.729 z"
           style="fill:#0069d5;fill-opacity:1;fill-rule:nonzero;stroke:none"
           id="path88947"
           inkscape:connector-curvature="0" /><path
           d="m 487.029,628.414 16.094,9.117 v 29.505 l -27.322,18.082 -54.342,-30.102 v 39.918 l -55.201,-46.908 z"
           style="fill:#0080dd;fill-opacity:1;fill-rule:nonzero;stroke:none"
           id="path88949"
           inkscape:connector-curvature="0" /><path
           d="m 538.226,626.013 -3.829,-1.782 v -3.508 l 4.721,-0.767 z"
           style="fill:#0080dd;fill-opacity:1;fill-rule:nonzero;stroke:none"
           id="path88951"
           inkscape:connector-curvature="0" /><path
           d="m 539.118,619.956 -4.721,-6.52 v -63.114 l 16.54,11.275 z"
           style="fill:#49ebcf;fill-opacity:1;fill-rule:nonzero;stroke:none"
           id="path88953"
           inkscape:connector-curvature="0" /><path
           d="M 477.701,511.675 V 535.12 L 444.192,488.834 Z"
           style="fill:#49ebcf;fill-opacity:1;fill-rule:nonzero;stroke:none"
           id="path88955"
           inkscape:connector-curvature="0" /><path
           d="m 445.709,220.986 -7.873,4.475 1.925,-16.231 z"
           style="fill:#f38800;fill-opacity:1;fill-rule:nonzero;stroke:none"
           id="path88957"
           inkscape:connector-curvature="0" /><path
           d="m 430.031,291.277 39.15,-23.895 8.502,16.806 v 21.835 l -51.588,18.447 z"
           style="fill:#f38800;fill-opacity:1;fill-rule:nonzero;stroke:none"
           id="path88959"
           inkscape:connector-curvature="0" /><path
           d="m 402.66,455.2 h 16.121 l 18.405,-31.985 44.681,-14.162 -37.675,79.781 z"
           style="fill:#8df395;fill-opacity:1;fill-rule:nonzero;stroke:none"
           id="path88961"
           inkscape:connector-curvature="0" /><path
           d="m 473.595,141.523 26.839,13.409 v 34.964 l -10.655,6.052 -16.691,-54.135 z"
           style="fill:#ef3500;fill-opacity:1;fill-rule:nonzero;stroke:none"
           id="path88963"
           inkscape:connector-curvature="0" /><path
           d="m 441.244,159.825 31.844,-18.012 16.691,54.135 -32.419,18.42 -17.599,-5.138 z"
           style="fill:#f43800;fill-opacity:1;fill-rule:nonzero;stroke:none"
           id="path88965"
           inkscape:connector-curvature="0" /><path
           d="m 477.683,262.193 v 21.995 l -8.502,-16.806 z"
           style="fill:#f77700;fill-opacity:1;fill-rule:nonzero;stroke:none"
           id="path88967"
           inkscape:connector-curvature="0" /><path
           d="m 457.36,214.368 -11.651,6.618 -5.948,-11.756 z"
           style="fill:#f77700;fill-opacity:1;fill-rule:nonzero;stroke:none"
           id="path88969"
           inkscape:connector-curvature="0" /><path
           d="m 426.095,324.47 51.588,-18.447 v 17.864 l 8.561,-4.88 -4.377,90.046 z"
           style="fill:#f2d000;fill-opacity:1;fill-rule:nonzero;stroke:none"
           id="path88971"
           inkscape:connector-curvature="0" /><path
           d="m 584.39,198.95 -49.203,15.97 v -12.604 l 27.317,-15.6 z"
           style="fill:#fb6100;fill-opacity:1;fill-rule:nonzero;stroke:none"
           id="path88973"
           inkscape:connector-curvature="0" /><path
           d="m 481.867,409.053 56.167,18.418 -25.191,15.696 28.847,18.321 -97.498,27.346 z"
           style="fill:#c2f848;fill-opacity:1;fill-rule:nonzero;stroke:none"
           id="path88975"
           inkscape:connector-curvature="0" /><path
           d="m 541.69,461.488 25.894,16.445 20.499,-12.119 -37.146,95.783 -16.54,-11.275 v -22.723 l -56.696,-30.904 v 14.98 l -33.509,-22.841 z"
           style="fill:#a3f59d;fill-opacity:1;fill-rule:nonzero;stroke:none"
           id="path88977"
           inkscape:connector-curvature="0" /><path
           d="m 546.835,630.021 -8.609,-4.008 0.892,-6.057 z"
           style="fill:#30a2c4;fill-opacity:1;fill-rule:nonzero;stroke:none"
           id="path88979"
           inkscape:connector-curvature="0" /><path
           d="m 626.498,313.359 -4.003,2.379 3.053,1.716 -13.196,56.856 -44.768,-25.007 -32.461,16.999 -39.698,-52.529 32.279,-18.397 107.447,-19.291 z"
           style="fill:#ffd100;fill-opacity:1;fill-rule:nonzero;stroke:none"
           id="path88981"
           inkscape:connector-curvature="0" /><path
           d="m 511.253,378.801 54.526,31.382 -27.745,17.288 -56.167,-18.418 4.377,-90.046 9.181,-5.234 39.698,52.529 z"
           style="fill:#f9eb00;fill-opacity:1;fill-rule:nonzero;stroke:none"
           id="path88983"
           inkscape:connector-curvature="0" /><path
           d="m 590.412,260.817 1.098,-0.625 43.641,15.893 -107.447,19.291 7.483,-4.265 v -51.427 l 55.225,20.109 z"
           style="fill:#fd9d00;fill-opacity:1;fill-rule:nonzero;stroke:none"
           id="path88985"
           inkscape:connector-curvature="0" /><path
           d="m 591.51,260.192 39.564,-22.521 4.077,38.414 z"
           style="fill:#ff9300;fill-opacity:1;fill-rule:nonzero;stroke:none"
           id="path88987"
           inkscape:connector-curvature="0" /><path
           d="m 590.412,202.316 v 57.477 L 535.187,239.684 V 214.92 l 49.203,-15.97 z"
           style="fill:#ff9300;fill-opacity:1;fill-rule:nonzero;stroke:none"
           id="path88989"
           inkscape:connector-curvature="0" /><path
           d="m 550.937,561.597 37.146,-95.783 9.055,-5.352 9.942,93.01 z"
           style="fill:#aff33d;fill-opacity:1;fill-rule:nonzero;stroke:none"
           id="path88991"
           inkscape:connector-curvature="0" /><path
           d="m 584.184,626.991 -22.469,9.955 -14.88,-6.925 -7.717,-10.065 z"
           style="fill:#5dcf85;fill-opacity:1;fill-rule:nonzero;stroke:none"
           id="path88993"
           inkscape:connector-curvature="0" /><path
           d="m 550.937,561.597 56.143,-8.125 -11.842,11.583 -4.826,-2.607 v 7.327 l -51.294,50.181 z"
           style="fill:#5cea70;fill-opacity:1;fill-rule:nonzero;stroke:none"
           id="path88995"
           inkscape:connector-curvature="0" /><path
           d="m 612.137,574.183 -16.899,-9.128 11.842,-11.583 z"
           style="fill:#68e25a;fill-opacity:1;fill-rule:nonzero;stroke:none"
           id="path88997"
           inkscape:connector-curvature="0" /><path
           d="m 590.412,569.775 v 54.456 l -6.228,2.76 -45.066,-7.035 z"
           style="fill:#68e25a;fill-opacity:1;fill-rule:nonzero;stroke:none"
           id="path88999"
           inkscape:connector-curvature="0" /><path
           d="m 646.727,431.146 1.017,0.564 -3.759,1.056 z"
           style="fill:#ffce00;fill-opacity:1;fill-rule:nonzero;stroke:none"
           id="path89001"
           inkscape:connector-curvature="0" /><path
           d="m 649.903,299.458 -23.405,13.901 8.653,-37.274 z"
           style="fill:#ffce00;fill-opacity:1;fill-rule:nonzero;stroke:none"
           id="path89003"
           inkscape:connector-curvature="0" /><path
           d="m 672.155,343.642 v 31.896 l -25.428,17.974 -34.375,-19.202 13.196,-56.856 z"
           style="fill:#ffce00;fill-opacity:1;fill-rule:nonzero;stroke:none"
           id="path89005"
           inkscape:connector-curvature="0" /><path
           d="m 673.446,479.337 -13.112,7.35 13.112,-16.444 z"
           style="fill:#f0c500;fill-opacity:1;fill-rule:nonzero;stroke:none"
           id="path89007"
           inkscape:connector-curvature="0" /><path
           d="m 636.522,516.548 59.513,33.833 -88.955,3.091 z"
           style="fill:#f0c500;fill-opacity:1;fill-rule:nonzero;stroke:none"
           id="path89009"
           inkscape:connector-curvature="0" /><path
           d="m 597.138,460.462 46.847,-27.696 3.759,-1.056 25.702,14.242 v 24.291 l -13.112,16.444 -38.438,21.545 14.626,8.316 -29.442,36.924 z"
           style="fill:#f6e000;fill-opacity:1;fill-rule:nonzero;stroke:none"
           id="path89011"
           inkscape:connector-curvature="0" /><path
           d="m 696.035,550.381 8.315,4.727 v 27.235 l -34.701,22.903 -57.512,-31.063 -5.057,-20.711 z"
           style="fill:#b7df21;fill-opacity:1;fill-rule:nonzero;stroke:none"
           id="path89013"
           inkscape:connector-curvature="0" /><path
           d="m 673.04,285.715 -23.137,13.743 -14.752,-23.373 z"
           style="fill:#feb200;fill-opacity:1;fill-rule:nonzero;stroke:none"
           id="path89015"
           inkscape:connector-curvature="0" /><path
           d="m 704.35,590.064 -29.517,17.98 -5.184,-2.798 34.701,-22.903 z"
           style="fill:#d3b200;fill-opacity:1;fill-rule:nonzero;stroke:none"
           id="path89017"
           inkscape:connector-curvature="0" /><path
           d="m 631.074,237.671 37.016,-21.068 29.05,13.266 -61.989,46.216 z"
           style="fill:#ff8500;fill-opacity:1;fill-rule:nonzero;stroke:none"
           id="path89019"
           inkscape:connector-curvature="0" /><path
           d="m 697.14,229.869 4.43,2.025 v 36.874 l -28.53,16.947 -37.889,-9.63 z"
           style="fill:#fe9400;fill-opacity:1;fill-rule:nonzero;stroke:none"
           id="path89021"
           inkscape:connector-curvature="0" /></g></g></g></svg>